<?xml version="1.0" encoding="utf-8"?>
<!-- Generator: Adobe Illustrator 17.0.0, SVG Export Plug-In . SVG Version: 6.00 Build 0)  -->
<!DOCTYPE svg PUBLIC "-//W3C//DTD SVG 1.1//EN" "http://www.w3.org/Graphics/SVG/1.1/DTD/svg11.dtd">
<svg version="1.1" id="Layer_1" xmlns="http://www.w3.org/2000/svg" xmlns:xlink="http://www.w3.org/1999/xlink" x="0px" y="0px"
	 width="44.534px" height="36.502px" viewBox="0 0 44.534 36.502" enable-background="new 0 0 44.534 36.502" xml:space="preserve">
<g>
	<g>
		
			<path fill="none" stroke="#FFDE17" stroke-width="0.3" stroke-linecap="round" stroke-linejoin="round" stroke-miterlimit="10" d="
			M0.462,30.638c0,0-0.519,0.29-0.438,0.645c0.032,0.139,0.155,0.288,0.438,0.434l28.017,4.272l12.989-12.863l-0.086-0.946
			l0.259-0.432l-26.459-2.462l-0.209,0.132l26.296,2.578l0.113,0.011"/>
		
			<path fill="none" stroke="#FFDE17" stroke-width="0.3" stroke-linecap="round" stroke-linejoin="round" stroke-miterlimit="10" d="
			M0.024,31.263c0,0-0.178,0.703,0.438,0.875c0,0,27.845,4.406,28.017,4.363c0.173-0.043,1.251-0.774,1.251-0.774l11.824-12.404
			l-0.173-1.273"/>
		<polygon fill="none" stroke="#FFDE17" stroke-width="0.3" stroke-miterlimit="10" points="41.382,22.008 14.973,19.418 
			0.56,30.552 0.462,30.872 0.731,31.089 28.091,35.385 		"/>
		<path fill="none" stroke="#FFDE17" stroke-width="0.3" stroke-miterlimit="10" d="M41.828,1.04c0,0,0.676-0.077,0.676,0.341v19.72
			c0,0,0.129,0.46-0.69,0.647"/>
		
			<polyline fill="none" stroke="#FFDE17" stroke-width="0.3" stroke-linecap="round" stroke-linejoin="round" stroke-miterlimit="10" points="
			39.278,23.324 38.311,24.251 38.231,24.251 		"/>
		
			<polyline fill="none" stroke="#FFDE17" stroke-width="0.3" stroke-linecap="round" stroke-linejoin="round" stroke-miterlimit="10" points="
			38.329,24.273 37.361,25.201 37.282,25.201 		"/>
		
			<polyline fill="none" stroke="#FFDE17" stroke-width="0.3" stroke-linecap="round" stroke-linejoin="round" stroke-miterlimit="10" points="
			35.686,24.899 35.944,24.467 36.793,23.82 37.735,23.901 38.231,24.251 37.733,23.953 36.931,24.545 36.937,24.938 36.905,24.575 
			35.944,24.47 		"/>
		
			<polyline fill="none" stroke="#FFDE17" stroke-width="0.3" stroke-linecap="round" stroke-linejoin="round" stroke-miterlimit="10" points="
			35.772,23.604 35.772,23.345 36.62,22.698 37.562,22.779 37.714,22.957 37.561,22.831 36.758,23.423 36.764,23.73 36.733,23.453 
			35.772,23.348 		"/>
		
			<polyline fill="none" stroke="#FFDE17" stroke-width="0.3" stroke-linecap="round" stroke-linejoin="round" stroke-miterlimit="10" points="
			37.153,23.69 37.153,23.432 38.001,22.784 38.943,22.865 39.267,23.302 38.942,22.917 38.139,23.509 38.145,23.816 38.113,23.539 
			37.153,23.434 		"/>
		<polygon fill="none" stroke="#FFDE17" stroke-width="0.3" stroke-miterlimit="10" points="41.813,21.835 15.182,19.287 14.207,0 
			41.813,1.026 		"/>
		<polygon fill="none" stroke="#FFDE17" stroke-width="0.3" stroke-miterlimit="10" points="40.087,19.677 16.612,17.606 
			15.749,1.381 40.087,2.244 		"/>
		<polygon fill="none" stroke="#FFDE17" stroke-width="0.3" stroke-miterlimit="10" points="17.993,31.501 12.642,30.638 
			13.11,30.213 15.49,28.049 20.582,28.826 		"/>
		<line fill="none" stroke="#FFDE17" stroke-width="0.3" stroke-miterlimit="10" x1="18.382" y1="31.069" x2="13.117" y2="30.206"/>
		
			<polyline fill="none" stroke="#FFDE17" stroke-width="0.3" stroke-linecap="round" stroke-linejoin="round" stroke-miterlimit="10" points="
			7.809,26.193 7.809,25.675 8.572,25.071 10.528,25.244 9.659,25.818 9.665,26.136 9.633,25.864 7.809,25.675 		"/>
		
			<polyline fill="none" stroke="#FFDE17" stroke-width="0.3" stroke-linecap="round" stroke-linejoin="round" stroke-miterlimit="10" points="
			8.845,25.071 8.845,24.64 9.607,24.036 12.081,24.295 11.212,24.869 11.218,25.186 11.187,24.915 8.845,24.64 		"/>
		
			<polyline fill="none" stroke="#FFDE17" stroke-width="0.3" stroke-linecap="round" stroke-linejoin="round" stroke-miterlimit="10" points="
			10.053,24.036 10.053,23.777 10.816,23.173 13.203,23.432 12.334,24.006 12.34,24.323 12.309,24.052 10.053,23.777 		"/>
		
			<polyline fill="none" stroke="#FFDE17" stroke-width="0.3" stroke-linecap="round" stroke-linejoin="round" stroke-miterlimit="10" points="
			11.089,23.173 11.089,22.914 11.851,22.353 13.031,22.439 12.161,22.992 12.168,23.298 12.136,23.021 11.089,22.916 		"/>
		
			<polyline fill="none" stroke="#FFDE17" stroke-width="0.3" stroke-linecap="round" stroke-linejoin="round" stroke-miterlimit="10" points="
			12.47,23.345 12.47,23.086 13.232,22.525 14.412,22.612 13.542,23.164 13.549,23.557 13.517,23.194 12.47,23.089 		"/>
		
			<polyline fill="none" stroke="#FFDE17" stroke-width="0.3" stroke-linecap="round" stroke-linejoin="round" stroke-miterlimit="10" points="
			13.851,23.518 13.851,23.173 14.613,22.612 15.792,22.698 14.923,23.25 14.929,23.644 14.898,23.28 13.851,23.175 		"/>
		
			<polyline fill="none" stroke="#FFDE17" stroke-width="0.3" stroke-linecap="round" stroke-linejoin="round" stroke-miterlimit="10" points="
			12.729,24.381 12.729,24.122 13.491,23.561 14.671,23.647 13.801,24.2 13.807,24.507 13.776,24.23 12.729,24.125 		"/>
		
			<polyline fill="none" stroke="#FFDE17" stroke-width="0.3" stroke-linecap="round" stroke-linejoin="round" stroke-miterlimit="10" points="
			11.607,25.417 11.607,24.985 12.369,24.424 13.462,24.51 12.679,25.063 12.686,25.37 12.654,25.093 11.607,24.988 		"/>
		
			<polyline fill="none" stroke="#FFDE17" stroke-width="0.3" stroke-linecap="round" stroke-linejoin="round" stroke-miterlimit="10" points="
			12.988,25.589 12.988,25.158 13.75,24.597 14.843,24.683 14.06,25.235 14.066,25.542 14.035,25.265 12.988,25.16 		"/>
		
			<polyline fill="none" stroke="#FFDE17" stroke-width="0.3" stroke-linecap="round" stroke-linejoin="round" stroke-miterlimit="10" points="
			10.053,26.452 10.053,25.934 10.816,25.373 11.93,25.454 12.081,25.632 11.842,25.507 11.126,26.012 11.132,26.319 11.1,26.042 
			10.053,25.937 		"/>
		
			<polyline fill="none" stroke="#FFDE17" stroke-width="0.3" stroke-linecap="round" stroke-linejoin="round" stroke-miterlimit="10" points="
			11.434,26.711 11.434,26.193 12.283,25.546 13.397,25.627 13.549,25.805 13.396,25.679 12.593,26.271 12.599,26.578 
			12.567,26.301 11.434,26.196 		"/>
		
			<polyline fill="none" stroke="#FFDE17" stroke-width="0.3" stroke-linecap="round" stroke-linejoin="round" stroke-miterlimit="10" points="
			12.988,26.884 12.988,26.366 13.836,25.719 23.495,26.922 23.646,27.099 23.493,26.974 22.691,27.566 22.697,27.873 
			22.665,27.595 12.988,26.369 		"/>
		
			<polyline fill="none" stroke="#FFDE17" stroke-width="0.3" stroke-linecap="round" stroke-linejoin="round" stroke-miterlimit="10" points="
			12.211,22.31 12.211,22.051 13.059,21.403 14.001,21.485 14.153,21.749 14,21.537 13.197,22.129 13.203,22.435 13.172,22.158 
			12.211,22.053 		"/>
		
			<polyline fill="none" stroke="#FFDE17" stroke-width="0.3" stroke-linecap="round" stroke-linejoin="round" stroke-miterlimit="10" points="
			13.592,22.482 13.592,22.223 14.44,21.576 15.382,21.657 15.534,21.835 15.381,21.709 14.578,22.301 14.584,22.608 14.552,22.331 
			13.592,22.226 		"/>
		
			<polyline fill="none" stroke="#FFDE17" stroke-width="0.3" stroke-linecap="round" stroke-linejoin="round" stroke-miterlimit="10" points="
			14.973,22.568 14.973,22.31 15.821,21.662 16.763,21.743 16.828,21.921 16.762,21.796 15.959,22.387 15.965,22.694 15.933,22.417 
			14.973,22.312 		"/>
		
			<polyline fill="none" stroke="#FFDE17" stroke-width="0.3" stroke-linecap="round" stroke-linejoin="round" stroke-miterlimit="10" points="
			16.181,22.741 16.181,22.482 17.029,21.835 17.971,21.916 18.123,22.18 17.97,21.968 17.167,22.56 17.173,22.867 17.142,22.59 
			16.181,22.485 		"/>
		
			<polyline fill="none" stroke="#FFDE17" stroke-width="0.3" stroke-linecap="round" stroke-linejoin="round" stroke-miterlimit="10" points="
			15.231,23.604 15.231,23.432 16.08,22.784 17.022,22.865 17.087,23.129 17.02,22.917 16.218,23.509 16.224,23.816 16.192,23.539 
			15.231,23.434 		"/>
		
			<polyline fill="none" stroke="#FFDE17" stroke-width="0.3" stroke-linecap="round" stroke-linejoin="round" stroke-miterlimit="10" points="
			16.526,23.777 16.526,23.604 17.375,22.957 18.316,23.038 18.468,23.216 18.315,23.09 17.512,23.682 17.519,23.989 17.487,23.712 
			16.526,23.607 		"/>
		
			<polyline fill="none" stroke="#FFDE17" stroke-width="0.3" stroke-linecap="round" stroke-linejoin="round" stroke-miterlimit="10" points="
			17.821,23.949 17.821,23.777 18.669,23.129 19.611,23.211 19.762,23.388 19.61,23.263 18.807,23.855 18.813,24.161 18.781,23.884 
			17.821,23.779 		"/>
		
			<polyline fill="none" stroke="#FFDE17" stroke-width="0.3" stroke-linecap="round" stroke-linejoin="round" stroke-miterlimit="10" points="
			19.115,24.036 19.115,23.863 19.964,23.216 20.906,23.297 21.057,23.475 20.904,23.349 20.101,23.941 20.108,24.248 
			20.076,23.971 19.115,23.866 		"/>
		
			<polyline fill="none" stroke="#FFDE17" stroke-width="0.3" stroke-linecap="round" stroke-linejoin="round" stroke-miterlimit="10" points="
			20.41,24.208 20.41,24.036 21.258,23.388 22.2,23.469 22.352,23.647 22.199,23.522 21.396,24.113 21.402,24.42 21.37,24.143 
			20.41,24.038 		"/>
		
			<polyline fill="none" stroke="#FFDE17" stroke-width="0.3" stroke-linecap="round" stroke-linejoin="round" stroke-miterlimit="10" points="
			21.704,24.381 21.704,24.208 22.553,23.561 23.495,23.642 23.646,23.82 23.493,23.694 22.691,24.286 22.697,24.593 22.665,24.316 
			21.704,24.211 		"/>
		
			<polyline fill="none" stroke="#FFDE17" stroke-width="0.3" stroke-linecap="round" stroke-linejoin="round" stroke-miterlimit="10" points="
			22.999,24.553 22.999,24.381 23.847,23.734 24.789,23.815 24.941,23.992 24.788,23.867 23.985,24.459 23.991,24.766 23.96,24.488 
			22.999,24.384 		"/>
		
			<polyline fill="none" stroke="#FFDE17" stroke-width="0.3" stroke-linecap="round" stroke-linejoin="round" stroke-miterlimit="10" points="
			24.38,24.64 24.38,24.467 25.228,23.82 26.17,23.901 26.322,24.165 26.169,23.953 25.366,24.545 25.372,24.852 25.34,24.575 
			24.38,24.47 		"/>
		
			<polyline fill="none" stroke="#FFDE17" stroke-width="0.3" stroke-linecap="round" stroke-linejoin="round" stroke-miterlimit="10" points="
			25.761,24.812 25.761,24.64 26.609,23.992 27.551,24.074 27.702,24.251 27.55,24.126 26.747,24.718 26.753,25.025 26.721,24.747 
			25.761,24.642 		"/>
		
			<polyline fill="none" stroke="#FFDE17" stroke-width="0.3" stroke-linecap="round" stroke-linejoin="round" stroke-miterlimit="10" points="
			14.023,24.553 14.023,24.295 14.872,23.647 15.814,23.728 15.879,23.992 15.812,23.781 15.01,24.372 15.016,24.679 14.984,24.402 
			14.023,24.297 		"/>
		
			<polyline fill="none" stroke="#FFDE17" stroke-width="0.3" stroke-linecap="round" stroke-linejoin="round" stroke-miterlimit="10" points="
			15.404,24.726 15.404,24.467 16.253,23.82 17.194,23.901 17.26,24.165 17.193,23.953 16.39,24.545 16.397,24.852 16.365,24.575 
			15.404,24.47 		"/>
		
			<polyline fill="none" stroke="#FFDE17" stroke-width="0.3" stroke-linecap="round" stroke-linejoin="round" stroke-miterlimit="10" points="
			16.785,24.899 16.785,24.64 17.634,23.992 18.575,24.074 18.64,24.338 18.574,24.126 17.771,24.718 17.777,25.025 17.746,24.747 
			16.785,24.642 		"/>
		
			<polyline fill="none" stroke="#FFDE17" stroke-width="0.3" stroke-linecap="round" stroke-linejoin="round" stroke-miterlimit="10" points="
			17.562,22.914 17.562,22.655 18.41,22.008 19.352,22.089 19.504,22.266 19.351,22.141 18.548,22.733 18.554,23.04 18.522,22.762 
			17.562,22.657 		"/>
		
			<polyline fill="none" stroke="#FFDE17" stroke-width="0.3" stroke-linecap="round" stroke-linejoin="round" stroke-miterlimit="10" points="
			18.77,23.086 18.77,22.827 19.619,22.18 20.56,22.261 20.712,22.439 20.559,22.313 19.756,22.905 19.849,23.212 19.731,22.935 
			18.77,22.83 		"/>
		
			<polyline fill="none" stroke="#FFDE17" stroke-width="0.3" stroke-linecap="round" stroke-linejoin="round" stroke-miterlimit="10" points="
			20.151,23.173 20.151,22.914 20.999,22.266 21.941,22.348 22.093,22.525 21.94,22.4 21.137,22.992 21.23,23.298 21.112,23.021 
			20.151,22.916 		"/>
		
			<polyline fill="none" stroke="#FFDE17" stroke-width="0.3" stroke-linecap="round" stroke-linejoin="round" stroke-miterlimit="10" points="
			21.359,23.345 21.359,23.086 22.208,22.439 23.149,22.52 23.301,22.698 23.148,22.572 22.345,23.164 22.438,23.471 22.32,23.194 
			21.359,23.089 		"/>
		
			<polyline fill="none" stroke="#FFDE17" stroke-width="0.3" stroke-linecap="round" stroke-linejoin="round" stroke-miterlimit="10" points="
			22.74,23.432 22.74,23.173 23.589,22.525 24.53,22.606 24.682,22.784 24.529,22.659 23.726,23.25 23.819,23.557 23.701,23.28 
			22.74,23.175 		"/>
		
			<polyline fill="none" stroke="#FFDE17" stroke-width="0.3" stroke-linecap="round" stroke-linejoin="round" stroke-miterlimit="10" points="
			23.948,23.604 23.948,23.345 24.797,22.698 25.739,22.779 25.89,22.957 25.737,22.831 24.934,23.423 25.027,23.73 24.909,23.453 
			23.948,23.348 		"/>
		
			<polyline fill="none" stroke="#FFDE17" stroke-width="0.3" stroke-linecap="round" stroke-linejoin="round" stroke-miterlimit="10" points="
			25.243,23.777 25.243,23.432 26.091,22.784 27.033,22.865 27.185,23.043 27.032,22.917 26.229,23.509 26.322,23.816 
			26.203,23.539 25.243,23.434 		"/>
		
			<polyline fill="none" stroke="#FFDE17" stroke-width="0.3" stroke-linecap="round" stroke-linejoin="round" stroke-miterlimit="10" points="
			26.537,23.949 26.537,23.604 27.386,22.957 28.328,23.038 28.479,23.216 28.326,23.09 27.524,23.682 27.616,23.989 27.498,23.712 
			26.537,23.607 		"/>
		
			<polyline fill="none" stroke="#FFDE17" stroke-width="0.3" stroke-linecap="round" stroke-linejoin="round" stroke-miterlimit="10" points="
			27.141,25.071 27.141,24.726 27.99,24.079 28.932,24.16 29.083,24.338 28.93,24.212 28.128,24.804 28.134,25.111 28.102,24.834 
			27.141,24.729 		"/>
		
			<polyline fill="none" stroke="#FFDE17" stroke-width="0.3" stroke-linecap="round" stroke-linejoin="round" stroke-miterlimit="10" points="
			28.35,25.071 28.35,24.899 29.198,24.251 30.14,24.333 30.292,24.597 30.139,24.385 29.336,24.977 29.342,25.283 29.31,25.006 
			28.35,24.901 		"/>
		
			<polyline fill="none" stroke="#FFDE17" stroke-width="0.3" stroke-linecap="round" stroke-linejoin="round" stroke-miterlimit="10" points="
			29.731,25.33 29.731,25.071 30.579,24.424 31.521,24.505 31.672,24.769 31.52,24.557 30.717,25.149 30.723,25.456 30.691,25.179 
			29.731,25.074 		"/>
		
			<polyline fill="none" stroke="#FFDE17" stroke-width="0.3" stroke-linecap="round" stroke-linejoin="round" stroke-miterlimit="10" points="
			31.025,25.589 31.111,25.244 31.96,24.597 32.902,24.678 33.053,24.856 32.9,24.73 32.098,25.322 32.104,25.629 32.072,25.352 
			31.111,25.247 		"/>
		
			<polyline fill="none" stroke="#FFDE17" stroke-width="0.3" stroke-linecap="round" stroke-linejoin="round" stroke-miterlimit="10" points="
			32.406,25.589 32.406,25.417 33.255,24.769 34.196,24.85 34.348,25.114 34.195,24.902 33.392,25.494 33.398,25.801 33.367,25.524 
			32.406,25.419 		"/>
		
			<polyline fill="none" stroke="#FFDE17" stroke-width="0.3" stroke-linecap="round" stroke-linejoin="round" stroke-miterlimit="10" points="
			33.787,25.848 33.787,25.589 34.722,24.856 35.664,24.937 35.729,25.287 35.662,24.989 34.773,25.667 34.779,25.974 
			34.748,25.697 33.787,25.592 		"/>
		
			<polyline fill="none" stroke="#FFDE17" stroke-width="0.3" stroke-linecap="round" stroke-linejoin="round" stroke-miterlimit="10" points="
			35.081,26.107 35.168,25.762 36.189,24.942 37.131,25.023 37.282,25.201 37.129,25.075 36.154,25.84 36.16,26.146 36.128,25.869 
			35.168,25.764 		"/>
		
			<polyline fill="none" stroke="#FFDE17" stroke-width="0.3" stroke-linecap="round" stroke-linejoin="round" stroke-miterlimit="10" points="
			27.918,24.036 27.918,23.69 28.767,23.043 29.709,23.124 29.86,23.302 29.707,23.176 28.904,23.768 28.997,24.075 28.879,23.798 
			27.918,23.693 		"/>
		
			<polyline fill="none" stroke="#FFDE17" stroke-width="0.3" stroke-linecap="round" stroke-linejoin="round" stroke-miterlimit="10" points="
			29.213,24.208 29.213,23.863 30.061,23.216 31.003,23.297 31.155,23.475 31.002,23.349 30.199,23.941 30.292,24.248 
			30.173,23.971 29.213,23.866 		"/>
		
			<polyline fill="none" stroke="#FFDE17" stroke-width="0.3" stroke-linecap="round" stroke-linejoin="round" stroke-miterlimit="10" points="
			30.507,24.467 30.594,23.949 31.442,23.302 32.384,23.383 32.535,23.561 32.383,23.435 31.58,24.027 31.672,24.334 31.554,24.057 
			30.594,23.952 		"/>
		
			<polyline fill="none" stroke="#FFDE17" stroke-width="0.3" stroke-linecap="round" stroke-linejoin="round" stroke-miterlimit="10" points="
			31.888,24.64 31.888,24.122 32.737,23.475 33.679,23.556 33.83,23.734 33.677,23.608 32.874,24.2 32.967,24.507 32.849,24.23 
			31.888,24.125 		"/>
		
			<polyline fill="none" stroke="#FFDE17" stroke-width="0.3" stroke-linecap="round" stroke-linejoin="round" stroke-miterlimit="10" points="
			18.166,25.071 18.166,24.899 19.014,24.251 19.956,24.333 20.108,24.51 19.955,24.385 19.152,24.977 19.158,25.283 19.127,25.006 
			18.166,24.901 		"/>
		
			<polyline fill="none" stroke="#FFDE17" stroke-width="0.3" stroke-linecap="round" stroke-linejoin="round" stroke-miterlimit="10" points="
			19.46,25.244 19.46,25.071 20.309,24.424 21.251,24.505 21.402,24.683 21.249,24.557 20.447,25.149 20.453,25.456 20.421,25.179 
			19.46,25.074 		"/>
		
			<polyline fill="none" stroke="#FFDE17" stroke-width="0.3" stroke-linecap="round" stroke-linejoin="round" stroke-miterlimit="10" points="
			20.755,25.417 20.755,25.244 21.604,24.597 22.545,24.678 22.697,24.856 22.544,24.73 21.741,25.322 21.747,25.629 21.716,25.352 
			20.755,25.247 		"/>
		
			<polyline fill="none" stroke="#FFDE17" stroke-width="0.3" stroke-linecap="round" stroke-linejoin="round" stroke-miterlimit="10" points="
			22.049,25.589 22.049,25.417 22.898,24.769 23.84,24.85 23.991,25.028 23.838,24.902 23.036,25.494 23.042,25.801 23.01,25.524 
			22.049,25.419 		"/>
		
			<polyline fill="none" stroke="#FFDE17" stroke-width="0.3" stroke-linecap="round" stroke-linejoin="round" stroke-miterlimit="10" points="
			23.43,25.675 23.43,25.503 24.279,24.856 25.221,24.937 25.372,25.201 25.219,24.989 24.417,25.581 24.423,25.888 24.391,25.61 
			23.43,25.505 		"/>
		
			<polyline fill="none" stroke="#FFDE17" stroke-width="0.3" stroke-linecap="round" stroke-linejoin="round" stroke-miterlimit="10" points="
			24.811,25.848 24.811,25.675 25.66,25.028 26.602,25.109 26.753,25.287 26.6,25.161 25.797,25.753 25.804,26.06 25.772,25.783 
			24.811,25.678 		"/>
		
			<polyline fill="none" stroke="#FFDE17" stroke-width="0.3" stroke-linecap="round" stroke-linejoin="round" stroke-miterlimit="10" points="
			26.192,26.107 26.192,25.762 27.041,25.114 27.982,25.196 28.134,25.373 27.981,25.248 27.178,25.84 27.185,26.146 27.153,25.869 
			26.192,25.764 		"/>
		
			<polyline fill="none" stroke="#FFDE17" stroke-width="0.3" stroke-linecap="round" stroke-linejoin="round" stroke-miterlimit="10" points="
			27.4,26.107 27.4,25.934 28.249,25.287 29.191,25.368 29.342,25.632 29.189,25.42 28.387,26.012 28.393,26.319 28.361,26.042 
			27.4,25.937 		"/>
		
			<polyline fill="none" stroke="#FFDE17" stroke-width="0.3" stroke-linecap="round" stroke-linejoin="round" stroke-miterlimit="10" points="
			28.781,26.366 28.781,26.107 29.63,25.46 30.572,25.541 30.723,25.805 30.57,25.593 29.767,26.185 29.774,26.492 29.742,26.215 
			28.781,26.11 		"/>
		
			<polyline fill="none" stroke="#FFDE17" stroke-width="0.3" stroke-linecap="round" stroke-linejoin="round" stroke-miterlimit="10" points="
			30.076,26.625 30.162,26.28 31.011,25.632 31.952,25.713 32.104,25.891 31.951,25.766 31.148,26.357 31.155,26.664 31.123,26.387 
			30.162,26.282 		"/>
		
			<polyline fill="none" stroke="#FFDE17" stroke-width="0.3" stroke-linecap="round" stroke-linejoin="round" stroke-miterlimit="10" points="
			31.457,26.625 31.457,26.452 32.305,25.805 33.247,25.886 33.398,26.15 33.246,25.938 32.443,26.53 32.449,26.837 32.417,26.56 
			31.457,26.455 		"/>
		
			<polyline fill="none" stroke="#FFDE17" stroke-width="0.3" stroke-linecap="round" stroke-linejoin="round" stroke-miterlimit="10" points="
			14.368,25.675 14.368,25.417 15.217,24.769 16.159,24.85 16.224,25.114 16.157,24.902 15.355,25.494 15.361,25.801 15.329,25.524 
			14.368,25.419 		"/>
		
			<polyline fill="none" stroke="#FFDE17" stroke-width="0.3" stroke-linecap="round" stroke-linejoin="round" stroke-miterlimit="10" points="
			15.749,25.848 15.749,25.589 16.598,24.942 17.54,25.023 17.605,25.287 17.538,25.075 16.736,25.667 16.742,25.974 16.71,25.697 
			15.749,25.592 		"/>
		
			<polyline fill="none" stroke="#FFDE17" stroke-width="0.3" stroke-linecap="round" stroke-linejoin="round" stroke-miterlimit="10" points="
			17.13,26.021 17.13,25.848 17.979,25.201 18.921,25.282 19.072,25.46 18.919,25.334 18.116,25.926 18.123,26.233 18.091,25.956 
			17.13,25.851 		"/>
		
			<polyline fill="none" stroke="#FFDE17" stroke-width="0.3" stroke-linecap="round" stroke-linejoin="round" stroke-miterlimit="10" points="
			18.425,26.193 18.425,26.021 19.273,25.373 20.215,25.454 20.367,25.632 20.214,25.507 19.411,26.098 19.417,26.405 
			19.385,26.128 18.425,26.023 		"/>
		
			<polyline fill="none" stroke="#FFDE17" stroke-width="0.3" stroke-linecap="round" stroke-linejoin="round" stroke-miterlimit="10" points="
			19.806,26.28 19.806,26.107 20.654,25.46 21.596,25.541 21.747,25.719 21.595,25.593 20.792,26.185 20.798,26.492 20.766,26.215 
			19.806,26.11 		"/>
		
			<polyline fill="none" stroke="#FFDE17" stroke-width="0.3" stroke-linecap="round" stroke-linejoin="round" stroke-miterlimit="10" points="
			21.014,26.538 21.014,26.366 21.862,25.719 22.804,25.8 22.956,25.977 22.803,25.852 22,26.444 22.006,26.664 21.975,26.473 
			21.014,26.369 		"/>
		
			<polyline fill="none" stroke="#FFDE17" stroke-width="0.3" stroke-linecap="round" stroke-linejoin="round" stroke-miterlimit="10" points="
			22.395,26.625 22.395,26.452 23.243,25.805 24.185,25.886 24.337,26.15 24.184,25.938 23.381,26.53 23.387,26.837 23.355,26.56 
			22.395,26.455 		"/>
		
			<polyline fill="none" stroke="#FFDE17" stroke-width="0.3" stroke-linecap="round" stroke-linejoin="round" stroke-miterlimit="10" points="
			23.776,26.797 23.776,26.625 24.624,25.977 25.566,26.059 25.717,26.236 25.565,26.111 24.762,26.703 24.768,27.01 24.736,26.732 
			23.776,26.627 		"/>
		
			<polyline fill="none" stroke="#FFDE17" stroke-width="0.3" stroke-linecap="round" stroke-linejoin="round" stroke-miterlimit="10" points="
			25.156,27.143 25.156,26.797 26.005,26.15 26.947,26.231 27.098,26.409 26.945,26.283 26.143,26.875 26.149,27.182 26.117,26.905 
			25.156,26.8 		"/>
		
			<polyline fill="none" stroke="#FFDE17" stroke-width="0.3" stroke-linecap="round" stroke-linejoin="round" stroke-miterlimit="10" points="
			26.624,27.056 26.624,26.884 27.472,26.236 28.414,26.318 28.565,26.582 28.413,26.37 27.61,26.962 27.616,27.268 27.584,26.991 
			26.624,26.886 		"/>
		
			<polyline fill="none" stroke="#FFDE17" stroke-width="0.3" stroke-linecap="round" stroke-linejoin="round" stroke-miterlimit="10" points="
			28.004,27.315 28.004,27.056 28.853,26.409 29.795,26.49 29.946,26.754 29.793,26.542 28.991,27.134 28.997,27.441 28.965,27.164 
			28.004,27.059 		"/>
		
			<polyline fill="none" stroke="#FFDE17" stroke-width="0.3" stroke-linecap="round" stroke-linejoin="round" stroke-miterlimit="10" points="
			29.299,27.574 29.385,27.229 30.234,26.582 31.176,26.663 31.327,26.841 31.174,26.715 30.372,27.307 30.378,27.614 
			30.346,27.337 29.385,27.232 		"/>
		
			<polyline fill="none" stroke="#FFDE17" stroke-width="0.3" stroke-linecap="round" stroke-linejoin="round" stroke-miterlimit="10" points="
			22.999,28.265 23.085,27.574 23.934,26.927 24.876,27.008 25.027,27.186 24.874,27.06 24.071,27.652 24.078,28.131 24.046,27.682 
			23.085,27.577 		"/>
		
			<polyline fill="none" stroke="#FFDE17" stroke-width="0.3" stroke-linecap="round" stroke-linejoin="round" stroke-miterlimit="10" points="
			24.38,28.437 24.466,27.747 25.315,27.099 26.256,27.181 26.494,27.445 26.255,27.233 25.452,27.825 25.458,28.304 25.427,27.854 
			24.466,27.749 		"/>
		
			<polyline fill="none" stroke="#FFDE17" stroke-width="0.3" stroke-linecap="round" stroke-linejoin="round" stroke-miterlimit="10" points="
			25.674,28.61 25.761,28.092 26.609,27.358 27.724,27.439 27.875,27.704 27.722,27.492 26.919,28.083 26.926,28.563 26.894,28.113 
			25.761,28.095 		"/>
		
			<polyline fill="none" stroke="#FFDE17" stroke-width="0.3" stroke-linecap="round" stroke-linejoin="round" stroke-miterlimit="10" points="
			27.141,28.782 27.314,28.178 28.163,27.531 29.104,27.612 29.256,27.876 29.103,27.664 28.3,28.256 28.307,28.563 28.275,28.286 
			27.314,28.181 		"/>
		
			<polyline fill="none" stroke="#FFDE17" stroke-width="0.3" stroke-linecap="round" stroke-linejoin="round" stroke-miterlimit="10" points="
			28.868,28.351 28.868,28.178 29.716,27.617 30.917,27.698 31.068,27.876 30.915,27.751 30.199,28.256 30.292,28.563 
			30.173,28.286 28.868,28.181 		"/>
		
			<polyline fill="none" stroke="#FFDE17" stroke-width="0.3" stroke-linecap="round" stroke-linejoin="round" stroke-miterlimit="10" points="
			28.004,29.386 28.004,28.955 28.853,28.394 30.054,28.475 30.119,28.653 30.052,28.527 29.336,29.033 29.428,29.34 29.31,29.063 
			28.004,28.958 		"/>
		
			<polyline fill="none" stroke="#FFDE17" stroke-width="0.3" stroke-linecap="round" stroke-linejoin="round" stroke-miterlimit="10" points="
			32.665,28.006 32.751,27.66 33.6,27.013 34.8,27.094 34.952,27.445 34.799,27.146 33.996,27.738 34.003,28.045 33.971,27.768 
			32.751,27.663 		"/>
		
			<polyline fill="none" stroke="#FFDE17" stroke-width="0.3" stroke-linecap="round" stroke-linejoin="round" stroke-miterlimit="10" points="
			31.802,28.696 31.802,28.61 32.65,27.962 33.851,28.044 34.003,28.394 33.85,28.096 33.047,28.688 33.053,28.995 33.021,28.717 
			31.802,28.612 		"/>
		
			<polyline fill="none" stroke="#FFDE17" stroke-width="0.3" stroke-linecap="round" stroke-linejoin="round" stroke-miterlimit="10" points="
			30.852,29.818 30.852,29.386 31.701,28.739 32.902,28.82 33.053,29.343 32.9,28.872 32.098,29.464 32.104,29.771 32.072,29.494 
			30.852,29.389 		"/>
		
			<polyline fill="none" stroke="#FFDE17" stroke-width="0.3" stroke-linecap="round" stroke-linejoin="round" stroke-miterlimit="10" points="
			30.421,28.523 30.421,28.437 31.27,27.79 32.47,27.871 32.535,28.049 32.469,27.923 31.666,28.515 31.672,28.736 31.641,28.545 
			30.421,28.44 		"/>
		
			<polyline fill="none" stroke="#FFDE17" stroke-width="0.3" stroke-linecap="round" stroke-linejoin="round" stroke-miterlimit="10" points="
			29.472,29.559 29.472,29.214 30.32,28.567 31.521,28.648 31.586,28.739 31.52,28.7 30.717,29.292 30.723,29.512 30.691,29.322 
			29.472,29.217 		"/>
		
			<polyline fill="none" stroke="#FFDE17" stroke-width="0.3" stroke-linecap="round" stroke-linejoin="round" stroke-miterlimit="10" points="
			30.68,27.574 30.68,27.402 31.529,26.754 33.247,26.922 33.398,27.186 33.246,26.974 32.443,27.566 32.449,27.873 32.417,27.595 
			30.68,27.404 		"/>
		
			<polyline fill="none" stroke="#FFDE17" stroke-width="0.3" stroke-linecap="round" stroke-linejoin="round" stroke-miterlimit="10" points="
			32.751,26.797 32.751,26.625 33.6,25.977 35.836,26.145 35.988,26.409 35.835,26.197 35.032,26.789 35.038,27.096 35.006,26.819 
			32.751,26.627 		"/>
		
			<polyline fill="none" stroke="#FFDE17" stroke-width="0.3" stroke-linecap="round" stroke-linejoin="round" stroke-miterlimit="10" points="
			33.183,24.812 33.183,24.295 34.031,23.647 34.973,23.728 35.125,23.906 34.972,23.781 34.169,24.372 34.261,24.679 
			34.143,24.402 33.183,24.297 		"/>
		
			<polyline fill="none" stroke="#FFDE17" stroke-width="0.3" stroke-linecap="round" stroke-linejoin="round" stroke-miterlimit="10" points="
			34.564,24.899 34.564,24.381 35.412,23.734 36.354,23.815 36.505,23.992 36.353,23.867 35.55,24.459 35.642,24.766 35.524,24.488 
			34.564,24.384 		"/>
		
			<polyline fill="none" stroke="#FFDE17" stroke-width="0.3" stroke-linecap="round" stroke-linejoin="round" stroke-miterlimit="10" points="
			18.684,21.964 18.684,21.792 19.532,21.144 20.474,21.226 20.539,21.403 20.473,21.278 19.67,21.87 19.676,22.176 19.644,21.899 
			18.684,21.794 		"/>
		
			<polyline fill="none" stroke="#FFDE17" stroke-width="0.3" stroke-linecap="round" stroke-linejoin="round" stroke-miterlimit="10" points="
			19.978,22.137 19.978,21.878 20.827,21.231 21.769,21.312 21.834,21.49 21.767,21.364 20.964,21.956 20.971,22.263 20.939,21.986 
			19.978,21.881 		"/>
		
			<polyline fill="none" stroke="#FFDE17" stroke-width="0.3" stroke-linecap="round" stroke-linejoin="round" stroke-miterlimit="10" points="
			22.567,22.396 22.567,22.137 23.416,21.49 24.358,21.571 24.423,21.749 24.356,21.623 23.554,22.215 23.56,22.522 23.528,22.245 
			22.567,22.14 		"/>
		
			<polyline fill="none" stroke="#FFDE17" stroke-width="0.3" stroke-linecap="round" stroke-linejoin="round" stroke-miterlimit="10" points="
			23.862,22.482 23.862,22.223 24.711,21.576 25.652,21.657 25.717,21.835 25.651,21.709 24.848,22.301 24.854,22.608 
			24.823,22.331 23.862,22.226 		"/>
		
			<polyline fill="none" stroke="#FFDE17" stroke-width="0.3" stroke-linecap="round" stroke-linejoin="round" stroke-miterlimit="10" points="
			25.156,22.655 25.156,22.396 26.005,21.749 26.947,21.83 27.012,22.008 26.945,21.882 26.143,22.474 26.149,22.781 26.117,22.503 
			25.156,22.399 		"/>
		
			<polyline fill="none" stroke="#FFDE17" stroke-width="0.3" stroke-linecap="round" stroke-linejoin="round" stroke-miterlimit="10" points="
			26.451,22.741 26.451,22.482 27.3,21.835 28.241,21.916 28.307,22.18 28.24,21.968 27.437,22.56 27.443,22.867 27.412,22.59 
			26.451,22.485 		"/>
		
			<polyline fill="none" stroke="#FFDE17" stroke-width="0.3" stroke-linecap="round" stroke-linejoin="round" stroke-miterlimit="10" points="
			27.746,22.914 27.746,22.655 28.594,22.008 29.536,22.089 29.774,22.18 29.535,22.141 28.732,22.733 28.738,23.04 28.706,22.762 
			27.746,22.657 		"/>
		
			<polyline fill="none" stroke="#FFDE17" stroke-width="0.3" stroke-linecap="round" stroke-linejoin="round" stroke-miterlimit="10" points="
			29.126,23 29.126,22.741 29.975,22.094 30.917,22.175 30.982,22.353 30.915,22.227 30.113,22.819 30.119,23.126 30.087,22.849 
			29.126,22.744 		"/>
		
			<polyline fill="none" stroke="#FFDE17" stroke-width="0.3" stroke-linecap="round" stroke-linejoin="round" stroke-miterlimit="10" points="
			30.421,23.086 30.421,22.827 31.27,22.18 32.211,22.261 32.277,22.439 32.21,22.313 31.407,22.905 31.413,23.212 31.382,22.935 
			30.421,22.83 		"/>
		
			<polyline fill="none" stroke="#FFDE17" stroke-width="0.3" stroke-linecap="round" stroke-linejoin="round" stroke-miterlimit="10" points="
			31.716,23.259 31.716,23 32.564,22.353 33.506,22.434 33.657,22.612 33.505,22.486 32.702,23.078 32.708,23.385 32.676,23.108 
			31.716,23.003 		"/>
		
			<polyline fill="none" stroke="#FFDE17" stroke-width="0.3" stroke-linecap="round" stroke-linejoin="round" stroke-miterlimit="10" points="
			33.096,23.345 33.096,23.086 33.945,22.439 34.887,22.52 35.038,22.698 34.885,22.572 34.083,23.164 34.089,23.471 34.057,23.194 
			33.096,23.089 		"/>
		
			<polyline fill="none" stroke="#FFDE17" stroke-width="0.3" stroke-linecap="round" stroke-linejoin="round" stroke-miterlimit="10" points="
			34.391,23.518 34.391,23.259 35.24,22.612 36.181,22.693 36.333,22.871 36.18,22.745 35.377,23.337 35.383,23.644 35.352,23.367 
			34.391,23.262 		"/>
		
			<polyline fill="none" stroke="#FFDE17" stroke-width="0.3" stroke-linecap="round" stroke-linejoin="round" stroke-miterlimit="10" points="
			21.273,22.223 21.273,21.964 22.121,21.317 23.063,21.398 23.128,21.576 23.062,21.45 22.259,22.042 22.265,22.349 22.233,22.072 
			21.273,21.967 		"/>
		
			<polyline fill="none" stroke="#FFDE17" stroke-width="0.3" stroke-linecap="round" stroke-linejoin="round" stroke-miterlimit="10" points="
			13.419,21.447 13.419,21.188 14.268,20.54 15.209,20.621 15.361,20.886 15.208,20.674 14.405,21.265 14.412,21.572 14.38,21.295 
			13.419,21.19 		"/>
		
			<polyline fill="none" stroke="#FFDE17" stroke-width="0.3" stroke-linecap="round" stroke-linejoin="round" stroke-miterlimit="10" points="
			14.714,21.533 14.714,21.36 15.562,20.713 16.504,20.794 16.569,21.058 16.503,20.846 15.7,21.438 15.706,21.745 15.674,21.468 
			14.714,21.363 		"/>
		
			<polyline fill="none" stroke="#FFDE17" stroke-width="0.3" stroke-linecap="round" stroke-linejoin="round" stroke-miterlimit="10" points="
			16.095,21.619 16.095,21.447 16.943,20.886 17.885,20.967 17.95,21.144 17.884,21.019 17.081,21.524 17.087,21.831 17.055,21.554 
			16.095,21.449 		"/>
		
			<polyline fill="none" stroke="#FFDE17" stroke-width="0.3" stroke-linecap="round" stroke-linejoin="round" stroke-miterlimit="10" points="
			17.303,21.792 17.303,21.619 18.238,20.972 19.093,21.053 19.158,21.317 19.092,21.105 18.289,21.697 18.295,22.004 
			18.264,21.727 17.303,21.622 		"/>
		
			<polyline fill="none" stroke="#FFDE17" stroke-width="0.3" stroke-linecap="round" stroke-linejoin="round" stroke-miterlimit="10" points="
			37.293,25.222 36.326,26.15 32.19,30.293 21.273,28.782 18.231,31.932 11.628,30.811 14.714,27.941 7.033,26.796 7.809,26.193 
			27.702,28.953 27.4,29.34 32.428,30.055 		"/>
	</g>
	<line fill="none" stroke="#FFDE17" stroke-width="0.3" stroke-miterlimit="10" x1="16.665" y1="17.52" x2="21.167" y2="13.017"/>
	<line fill="none" stroke="#FFDE17" stroke-width="0.3" stroke-miterlimit="10" x1="17.787" y1="17.692" x2="20.379" y2="15.101"/>
	<line fill="none" stroke="#FFDE17" stroke-width="0.3" stroke-miterlimit="10" x1="16.579" y1="16.311" x2="19.171" y2="13.72"/>
	<line fill="none" stroke="#FFDE17" stroke-width="0.3" stroke-miterlimit="10" x1="35.479" y1="6.818" x2="39.982" y2="2.316"/>
	<line fill="none" stroke="#FFDE17" stroke-width="0.3" stroke-miterlimit="10" x1="37.119" y1="6.473" x2="39.711" y2="3.881"/>
	<line fill="none" stroke="#FFDE17" stroke-width="0.3" stroke-miterlimit="10" x1="35.393" y1="5.61" x2="37.985" y2="3.018"/>
</g>
</svg>
